<?xml version="1.0" encoding="UTF-8"?>
<svg version="1.1" viewBox="0 0 125 30" xmlns="http://www.w3.org/2000/svg">
    <title>Adshares</title>
    <path d="m28.678 1.0069v17.255 0.23164a3.0114 3.0114 0 0 1 -0.86866 1.9574 2.8492 2.8492 0 0 1 -2.1103 0.91036 2.8168 2.8168 0 0 1 -2.0987 -0.91036 3.0392 3.0392 0 0 1 -0.87793 -2.189v-0.19226a9.8842 9.8842 0 0 0 -1.1582 -4.7209 11.015 11.015 0 0 0 -1.9945 -2.6709q-0.38916-0.39379-0.79454-0.73199a10.1 10.1 0 0 0 -6.486 -2.4184h-0.23165q-4.6769 0-7.862 3.0924-3.1851 3.0924-3.1944 7.6234v0.01853a10.31 10.31 0 0 0 3.1828 7.5817 10.514 10.514 0 0 0 7.6744 3.155 10.491 10.491 0 0 0 5.9185 -1.7211q-0.37989-0.31967-0.74126-0.6764a10.934 10.934 0 0 1 -3.199 -6.0227 2.8979 2.8979 0 0 1 -4.0955 -0.12277 3.0415 3.0415 0 0 1 -0.87793 -2.1937 3.0531 3.0531 0 0 1 0.86866 -2.2029 2.833 2.833 0 0 1 1.5497 -0.85013 3.148 3.148 0 0 1 0.55826 -0.04865 2.833 2.833 0 0 1 1.83 0.62544c0.06256 0.05559 0.12509 0.11351 0.183 0.17605a3.5928 3.5928 0 0 1 0.92658 1.6956 3.4353 3.4353 0 0 1 0.05099 0.60459 11.207 11.207 0 0 0 0.23164 2.2238 9.6132 9.6132 0 0 0 2.8376 5.2467c0.24786 0.24786 0.8455 0.76442 0.88488 0.79686a10.38 10.38 0 0 0 6.3447 2.4485h0.55826c2.4531 0 5.0962-0.53741 7.6651-3.1434a10.656 10.656 0 0 0 3.1735 -7.5863v-17.248zm-5.0614 14.957a2.8191 2.8191 0 0 1 2.05 -0.83855 2.8469 2.8469 0 0 1 1.8786 0.67177v-8.1863a10.774 10.774 0 0 0 -1.6817 -0.13204h-0.1969a10.996 10.996 0 0 0 -6.083 1.7999 12.161 12.161 0 0 1 0.91268 0.83855 10.934 10.934 0 0 1 3.1202 5.8467z"
          fill="#5fb2f9"/>
    <path d="m123.99 13.6c-0.9048-0.83183-2.2182-1.2696-3.3857-1.2696-1.9264 0-3.9986 0.94858-3.9986 3.2398 0 1.868 1.328 2.5393 2.6414 2.9625 1.3572 0.43781 2.1453 0.6859 2.1453 1.474 0 0.83183-0.6713 1.1237-1.4302 1.1237-0.81724 0-1.7366-0.46699-2.2328-1.0945l-1.6345 1.6637c0.9048 0.94858 2.3933 1.4885 3.8673 1.4885 2.0431 0 3.9548-1.0653 3.9548-3.4441 0-2.0577-1.8096-2.656-3.2106-3.1084-0.97776-0.30646-1.5907-0.52537-1.5907-1.2113 0-0.81724 0.80265-1.0361 1.4448-1.0361 0.64211 0 1.4156 0.35025 1.8388 0.89021zm-8.7039 9.3253v-2.1307h-4.8013v-2.1453h4.2905v-1.9993h-4.2905v-1.9409h4.5386v-2.1161h-6.9465v10.332zm-8.4221 0-2.6998-4.4218c1.328-0.40862 2.1453-1.401 2.1453-2.7874 0-2.3642-1.9701-3.123-3.9549-3.123h-3.9403v10.332h2.4517v-4.1008h0.84643l2.2328 4.1008zm-3.0209-7.1654c0 1.0507-1.007 1.255-1.8096 1.255h-1.1821v-2.4079h1.328c0.74427 0 1.6637 0.18972 1.6637 1.1529zm-6.2828 7.1654-4.2905-10.332h-2.4225l-4.3343 10.332h2.7144l0.75886-2.0285h3.9986l0.80264 2.0285zm-4.2613-4.0278h-2.5976l1.3134-3.5462zm-7.6422 4.0278v-10.332h-2.4955v3.9111h-4.0278v-3.9111h-2.4955v10.332h2.4955v-4.3197h4.0278v4.3197zm-10.607-9.3253c-0.9048-0.83183-2.2182-1.2696-3.3857-1.2696-1.9264 0-3.9986 0.94858-3.9986 3.2398 0 1.868 1.328 2.5393 2.6414 2.9625 1.3572 0.43781 2.1453 0.6859 2.1453 1.474 0 0.83183-0.6713 1.1237-1.4302 1.1237-0.81723 0-1.7366-0.46699-2.2328-1.0945l-1.6345 1.6637c0.9048 0.94858 2.3933 1.4885 3.8673 1.4885 2.0431 0 3.9549-1.0653 3.9549-3.4441 0-2.0577-1.8096-2.656-3.2106-3.1084-0.97776-0.30646-1.5907-0.52537-1.5907-1.2113 0-0.81724 0.80265-1.0361 1.4448-1.0361s1.4156 0.35025 1.8388 0.89021zm-8.6896 4.13c0-3.9111-2.9771-5.1369-5.9104-5.1369h-3.736v10.332h3.8527c2.8457 0 5.7936-1.5615 5.7936-5.1953zm-2.5977 0c0 2.3058-1.6491 3.0355-3.4295 3.0355h-1.1821v-6.0417h1.2405c1.722 0 3.3711 0.6859 3.3711 3.0063zm-7.9026 5.1953-4.2905-10.332h-2.4225l-4.3343 10.332h2.7144l0.75887-2.0285h3.9986l0.80264 2.0285zm-4.2613-4.0278h-2.5977l1.3134-3.5462z"
          fill="#0f1423"/>
</svg>
