<?xml version="1.0" encoding="UTF-8"?>
<svg version="1.1" viewBox="0 0 38 30" xmlns="http://www.w3.org/2000/svg">
    <title>Adshares</title>
    <path d="m28.678 1.0069v17.255 0.23164a3.0114 3.0114 0 0 1 -0.86866 1.9574 2.8492 2.8492 0 0 1 -2.1103 0.91036 2.8168 2.8168 0 0 1 -2.0987 -0.91036 3.0392 3.0392 0 0 1 -0.87793 -2.189v-0.19226a9.8842 9.8842 0 0 0 -1.1582 -4.7209 11.015 11.015 0 0 0 -1.9945 -2.6709q-0.38916-0.39379-0.79454-0.73199a10.1 10.1 0 0 0 -6.486 -2.4184h-0.23165q-4.6769 0-7.862 3.0924-3.1851 3.0924-3.1944 7.6234v0.01853a10.31 10.31 0 0 0 3.1828 7.5817 10.514 10.514 0 0 0 7.6744 3.155 10.491 10.491 0 0 0 5.9185 -1.7211q-0.37989-0.31967-0.74126-0.6764a10.934 10.934 0 0 1 -3.199 -6.0227 2.8979 2.8979 0 0 1 -4.0955 -0.12277 3.0415 3.0415 0 0 1 -0.87793 -2.1937 3.0531 3.0531 0 0 1 0.86866 -2.2029 2.833 2.833 0 0 1 1.5497 -0.85013 3.148 3.148 0 0 1 0.55826 -0.04865 2.833 2.833 0 0 1 1.83 0.62544c0.06256 0.05559 0.12509 0.11351 0.183 0.17605a3.5928 3.5928 0 0 1 0.92658 1.6956 3.4353 3.4353 0 0 1 0.05099 0.60459 11.207 11.207 0 0 0 0.23164 2.2238 9.6132 9.6132 0 0 0 2.8376 5.2467c0.24786 0.24786 0.8455 0.76442 0.88488 0.79686a10.38 10.38 0 0 0 6.3447 2.4485h0.55826c2.4531 0 5.0962-0.53741 7.6651-3.1434a10.656 10.656 0 0 0 3.1735 -7.5863v-17.248zm-5.0614 14.957a2.8191 2.8191 0 0 1 2.05 -0.83855 2.8469 2.8469 0 0 1 1.8786 0.67177v-8.1863a10.774 10.774 0 0 0 -1.6817 -0.13204h-0.1969a10.996 10.996 0 0 0 -6.083 1.7999 12.161 12.161 0 0 1 0.91268 0.83855 10.934 10.934 0 0 1 3.1202 5.8467z"
          fill="#5fb2f9"/>
</svg>
